<?xml version="1.0" standalone="no"?><!DOCTYPE svg PUBLIC "-//W3C//DTD SVG 1.1//EN" "http://www.w3.org/Graphics/SVG/1.1/DTD/svg11.dtd"><svg t="1622167321720" class="icon" viewBox="0 0 1024 1024" version="1.1" xmlns="http://www.w3.org/2000/svg" p-id="3594" xmlns:xlink="http://www.w3.org/1999/xlink" width="64" height="64"><defs><style type="text/css"></style></defs><path d="M792.942065 282.32711c0-35.091216-14.236236-66.87613-37.237089-89.855494-22.99983-23.004947-54.783721-37.241182-89.839121-37.241182-35.091216 0-66.875107 14.236236-89.87596 37.241182-23.000853 22.980387-37.216623 54.764278-37.216623 89.855494 0 58.522881 94.698802 195.504696 127.055744 250.765277 32.31294-55.220672 127.113049-192.319144 127.113049-250.765277z m-184.046736 0c0-15.752776 6.380314-29.972639 16.680914-40.289611 10.299577-10.299577 24.556279-16.680914 40.289612-16.680915 15.71696 0 29.953196 6.380314 40.253796 16.680915 10.3006 10.31595 16.680914 24.535813 16.680914 40.289611 0 15.712867-6.380314 29.969569-16.680914 40.270169-10.3006 10.3006-24.536836 16.680914-40.253796 16.680914-15.732309 0-29.989011-6.380314-40.289612-16.680914-10.3006-10.3006-16.680914-24.557302-16.680914-40.270169z" fill="#2BCD74" p-id="3595"></path><path d="M952.056969 715.918319L821.141314 351.486236l-1.121543-3.109827c-9.650801 23.806195-22.705118 49.270147-36.921911 74.493621l98.107435 273.055956H141.394822l103.407138-304.248375h286.942221c-10.654664-20.793582-19.910469-41.21775-26.448372-60.160172H223.298204v0.001023h-21.503757l-6.953365 20.439518L71.014892 716.390064l-13.506619 39.717583v85.782735h908.98243v-85.782735l-14.433734-40.189328z" fill="#2BCD74" p-id="3596"></path><path d="M479.460398 672.021553l7.283893-95.215571 84.640726 0.61296 24.831548 63.664995h225.28086l-16.027022-46.1419h-182.885284l-24.694425-57.320496-108.113323-0.729618 3.388167-44.149522-121.56366-25.916253v-23.121604h167.919431l-8.033977-20.063964H371.599831v-17.568121H345.530083l-2.976798 17.568121h-79.003332l-6.02932 20.063964h81.648578l-5.081738 30.212093h-88.357374v-0.001024l-6.77531 20.063965h107.560737l96.002495 30.622438-2.698459 11.954263-128.633682-0.866741-53.856605 133.867894 61.398372 0.592494 29.501917-94.328365 82.548065 0.592494-21.383007 94.639451z" fill="#2BCD74" p-id="3597"></path></svg>